<svg xmlns="http://www.w3.org/2000/svg"
    xmlns:xlink="http://www.w3.org/1999/xlink" width="1200" height="1200" viewBox="0 0 1200 1200">
    <g transform="translate(600 600) scale(-0.69 0.69) rotate(0) translate(-600 -600)" style="fill:#FFFFFF">
        <svg fill="#FFFFFF"
            xmlns="http://www.w3.org/2000/svg"
            xmlns:xlink="http://www.w3.org/1999/xlink" version="1.1" x="0px" y="0px" viewBox="0 0 100 100" enable-background="new 0 0 100 100" xml:space="preserve">

            <path d="M67.6,52.5h2.6c0.3-0.5,0.9-0.9,1.6-0.9c1.1,0,1.9,0.9,1.9,1.9c0,1.1-0.9,1.9-1.9,1.9c-0.7,0-1.3-0.3-1.6-0.9h-1.8l-1.1,1.1  v36.1c6-2.1,11.4-5.4,16.1-9.5c-2.5-2.9-4.4-5.1-4.4-5.1c-1.9-2.9-1.9-4-1.9-4c-2.9-12.1-2-17.4,3.4-28.7c1.9-3.9,2.8-8.6,2.8-13  C83.4,18.3,71.8,9.1,61.2,6c-8-2.3-16.4-1.4-24.3,0.8c-7,1.9-12.7,6-15.7,12.9c-1.3,2.8-2.3,5.9-3.2,9c-0.3,1.5,0.4,3.3,0.4,4.8  c0,1.4,0.2,3.2-0.4,4.3c-2,3.6-4.3,7.1-6.2,10.6c-1.2,2.1-0.8,3.3,1.2,4.4c0.8,0.4,1.4,0.7,2.2,0.9c2.4,0.9,2.8,1.7,2.4,4.1  c-0.2,1,0,1.5,0.1,2.6c0,0,0.2,1.1,1.1,0.8c-1,1.3-1.5,2.4,0,3.9c0.8,0.9,1.1,2.6,1,3.8c-0.1,4.4,0.9,6.2,5.2,6.7  c2.8,0.3,5.9-0.1,8.7-0.3c1.9-0.2,3.6-0.2,4.3,1.7c1.3,3.5,2.6,7,3.7,10.5c0.3,1,0.4,2.2,0.7,3.4c-0.2,1.1-0.6,2.1-1,3  c2.9,0.6,5.9,0.9,9,0.9V47.9l-8-8h-8.6L32.8,39c-0.1,0-0.3,0-0.4,0c-1.1,0-1.9-0.9-1.9-1.9c0-1.1,0.9-1.9,1.9-1.9  c1.1,0,1.9,0.9,1.9,1.9c0,0.1,0,0.3,0,0.4l0.3,0.3h8.6l7.1,7.1v-2.5l-7.8-7.8H26.6l-2-2c-0.1,0-0.3,0-0.4,0c-1.1,0-1.9-0.9-1.9-1.9  c0-1.1,0.9-1.9,1.9-1.9c1.1,0,1.9,0.9,1.9,1.9c0,0.1,0,0.3,0,0.4l1.4,1.4h15.9l9,9v53.1c1,0,1.9-0.1,2.9-0.2V42.3L68,29.5v-6.3  c-0.5-0.3-0.9-0.9-0.9-1.6c0-1.1,0.9-1.9,1.9-1.9c1.1,0,1.9,0.9,1.9,1.9c0,0.7-0.3,1.3-0.9,1.6v7.2L57.4,43.1v2l6.5-6.5  c0-0.1,0-0.3,0-0.4c0-1.1,0.9-1.9,1.9-1.9c1.1,0,1.9,0.9,1.9,1.9c0,1.1-0.9,1.9-1.9,1.9c-0.1,0-0.3,0-0.4,0l-8,8v2.2L74.7,33v-3  c-0.5-0.3-0.9-0.9-0.9-1.6c0-1.1,0.9-1.9,1.9-1.9c1.1,0,1.9,0.9,1.9,1.9c0,0.7-0.3,1.3-0.9,1.6v3.9L57.4,53.3v40.9  c1-0.1,1.9-0.3,2.9-0.5V53.6l9.9-9.9h4.4l1-1c0-0.1,0-0.3,0-0.4c0-1.1,0.9-1.9,1.9-1.9c1.1,0,1.9,0.9,1.9,1.9s-0.9,1.9-1.9,1.9  c-0.1,0-0.3,0-0.4,0l-1.6,1.6H71l-8.6,8.6v38.8c1-0.2,1.9-0.5,2.9-0.8V54.8L67.6,52.5z M39.8,8.8c0.7,0,1.3,0.3,1.6,0.9H44l8.7,8.7  c0.1,0,0.3,0,0.4,0c1.1,0,1.9,0.9,1.9,1.9c0,1.1-0.9,1.9-1.9,1.9c-1.1,0-1.9-0.9-1.9-1.9c0-0.1,0-0.3,0-0.4l-8.1-8.1h-1.7  c-0.3,0.5-0.9,0.9-1.6,0.9c-1.1,0-1.9-0.9-1.9-1.9S38.7,8.8,39.8,8.8z M29.2,14.5c0.1,0,0.3,0,0.4,0l3-3h3.9l16.7,16.7l3.5-3.5V13.8  l-2-2h-1.7c-0.3,0.5-0.9,0.9-1.6,0.9c-1.1,0-1.9-0.9-1.9-1.9s0.9-1.9,1.9-1.9c0.7,0,1.3,0.3,1.6,0.9h2.5l3.2,3.2v12.6l-5.6,5.6  L35.7,13.6h-2.2L31.1,16c0,0.1,0,0.3,0,0.4c0,1.1-0.9,1.9-1.9,1.9c-1.1,0-1.9-0.9-1.9-1.9C27.3,15.3,28.2,14.5,29.2,14.5z   M27.6,18.7c1.1,0,1.9,0.9,1.9,1.9c0,0.1,0,0.3,0,0.4l2.8,2.8h6.5l-3.3-3.3c-0.1,0-0.3,0-0.4,0c-1.1,0-1.9-0.9-1.9-1.9  c0-1.1,0.9-1.9,1.9-1.9c1.1,0,1.9,0.9,1.9,1.9c0,0.1,0,0.3,0,0.4l6.8,6.8H31.4L28,22.5c-0.1,0-0.3,0-0.4,0c-1.1,0-1.9-0.9-1.9-1.9  S26.5,18.7,27.6,18.7z M56.7,36.8c-0.1,0-0.1,0-0.2,0l-2.9,2.9l-9.3-9.3H27.8l-3.6-3.6c-0.1,0-0.3,0-0.4,0c-1.1,0-1.9-0.9-1.9-1.9  c0-1.1,0.9-1.9,1.9-1.9c1.1,0,1.9,0.9,1.9,1.9c0,0.1,0,0.3,0,0.4l3,3h16.6l8.4,8.4l1.2-1.2c-0.1-0.2-0.1-0.4-0.1-0.6  c0-1.1,0.9-1.9,1.9-1.9s1.9,0.9,1.9,1.9C58.7,35.9,57.8,36.8,56.7,36.8z M64.2,17.7v10.2l-2.3,2.3c0,0.1,0,0.3,0,0.4  c0,1.1-0.9,1.9-1.9,1.9c-1.1,0-1.9-0.9-1.9-1.9c0-1.1,0.9-1.9,1.9-1.9c0.1,0,0.3,0,0.4,0l1.7-1.7v-9.3c-0.5-0.3-0.9-0.9-0.9-1.6  c0-1.1,0.9-1.9,1.9-1.9c1.1,0,1.9,0.9,1.9,1.9C65.1,16.8,64.7,17.4,64.2,17.7z"></path>
          
        </svg>
    </g>
</svg>