<svg height='300px' width='300px' fill="#FFFFFF"
    xmlns="http://www.w3.org/2000/svg"
    xmlns:xlink="http://www.w3.org/1999/xlink" version="1.1" x="0px" y="0px" viewBox="0 0 100 100" enable-background="new 0 0 100 100" xml:space="preserve">
    <path d="M46.149,63.142c-1.091,0.292-2.293,0.167-3.347-0.443c-2.109-1.221-2.829-3.919-1.608-6.027L51.55,38.78  c1.221-2.107,3.919-2.827,6.027-1.607c2.108,1.22,2.828,3.919,1.607,6.028L48.83,61.09C48.219,62.145,47.239,62.852,46.149,63.142z"></path>
    <path d="M45.392,37.158c-2.108-1.219-4.807-0.5-6.028,1.608L35.46,45.51H6.932v8.823h23.422l-4.789,8.273l3.216,12.055L47,43.186  C48.221,41.078,47.5,38.379,45.392,37.158z"></path>
    <g>
        <polygon points="38.398,36.522 20.607,26.321 23.873,38.363 34.008,44.176  "></polygon>
    </g>
    <path d="M93.369,45.519H69.947l4.789-8.273L71.521,25.19L53.301,56.665c-1.22,2.108-0.5,4.807,1.608,6.028  c2.108,1.22,4.807,0.5,6.027-1.608l3.904-6.744h28.528V45.519z"></path>
    <g>
        <polygon points="61.903,63.382 79.693,73.583 76.429,61.542 66.292,55.729  "></polygon>
    </g>
</svg>